<?xml version="1.0" encoding="utf-8"?>
<!-- Generator: Adobe Illustrator 21.0.2, SVG Export Plug-In . SVG Version: 6.00 Build 0)  -->
<svg version="1.1" id="Layer_1" xmlns="http://www.w3.org/2000/svg" xmlns:xlink="http://www.w3.org/1999/xlink" x="0px" y="0px"
	 viewBox="0 0 15 15" style="enable-background:new 0 0 15 15;" xml:space="preserve">
<style type="text/css">
	.st0{fill:#ffffff;}
</style>
<path class="st0" d="M15,8.2V6.8c0-0.1-0.1-0.1-0.1-0.1H8.3V0.1C8.3,0.1,8.2,0,8.2,0H6.8C6.8,0,6.7,0.1,6.7,0.1v6.6H0.1
	C0.1,6.7,0,6.8,0,6.8v1.3c0,0.1,0.1,0.1,0.1,0.1h6.6v6.6c0,0.1,0.1,0.1,0.1,0.1h1.3c0.1,0,0.1-0.1,0.1-0.1V8.3h6.6
	C14.9,8.3,15,8.2,15,8.2z"/>
</svg>
