<?xml version="1.0" encoding="utf-8"?>
<!-- Generator: Adobe Illustrator 21.0.2, SVG Export Plug-In . SVG Version: 6.00 Build 0)  -->
<svg version="1.1" id="Layer_1" xmlns="http://www.w3.org/2000/svg" xmlns:xlink="http://www.w3.org/1999/xlink" x="0px" y="0px"
	 viewBox="0 0 49.6 243.8" style="enable-background:new 0 0 49.6 243.8;" xml:space="preserve" fill="#ffffff">
<g>
	<path d="M25,0c12.9,0,23.8,7.3,23.8,20.2c0,39.4-4.6,95.9-4.6,135.3c0,10.3-11.2,14.6-19.2,14.6c-10.6,0-19.5-4.3-19.5-14.6
		c0-39.4-4.6-95.9-4.6-135.3C0.8,7.3,11.4,0,25,0z"/>
	<path d="M25,243.8c-14.6,0-25.5-11.9-25.5-25.5c0-13.9,10.9-25.5,25.5-25.5c13.6,0,25.1,11.6,25.1,25.5
		C50.1,231.9,38.5,243.8,25,243.8z"/>
</g>
</svg>
