<?xml version="1.0" encoding="utf-8"?>
<!-- Generator: Adobe Illustrator 21.0.2, SVG Export Plug-In . SVG Version: 6.00 Build 0)  -->
<svg version="1.1" id="Layer_1" xmlns="http://www.w3.org/2000/svg" xmlns:xlink="http://www.w3.org/1999/xlink" x="0px" y="0px"
	 viewBox="0 0 512 435.3" style="enable-background:new 0 0 512 435.3;" xml:space="preserve" fill="#ffffff">
<g>
	<g>
		<path d="M507.5,387.7L282.9,15.2C277.2,5.8,267,0,256,0c-11,0-21.2,5.8-26.9,15.2L4.5,387.7c-5.8,9.7-6,21.8-0.5,31.6
			c5.6,9.9,16,15.9,27.3,15.9h449.3c11.3,0,21.8-6.1,27.3-15.9C513.5,409.5,513.3,397.4,507.5,387.7z M256.2,128.9
			c12.9,0,23.8,7.3,23.8,20.2c0,39.4-4.6,95.9-4.6,135.3c0,10.3-11.2,14.6-19.2,14.6c-10.6,0-19.5-4.3-19.5-14.6
			c0-39.4-4.6-95.9-4.6-135.3C232,136.1,242.6,128.9,256.2,128.9z M256.5,372.7c-14.6,0-25.5-11.9-25.5-25.5
			c0-13.9,10.9-25.5,25.5-25.5c13.6,0,25.1,11.6,25.1,25.5C281.6,360.7,270.1,372.7,256.5,372.7z"/>
	</g>
</g>
</svg>
