<?xml version="1.0" standalone="no"?>
<!DOCTYPE svg PUBLIC "-//W3C//DTD SVG 1.1//EN" "http://www.w3.org/Graphics/SVG/1.1/DTD/svg11.dtd" >
<svg xmlns="http://www.w3.org/2000/svg">
<metadata>Generated by IcoMoon</metadata>
<defs>
<font id="fitch-malta" horiz-adv-x="1024">
<font-face units-per-em="1024" ascent="960" descent="-64" />
<missing-glyph horiz-adv-x="1024" />
<glyph unicode="&#x20;" horiz-adv-x="512" d="" />
<glyph unicode="&#xe900;" glyph-name="view-details" horiz-adv-x="1069" d="M912.696 603.826c-102.4 102.4-235.965 155.826-378.435 155.826s-280.487-57.878-382.887-155.826l-151.374-155.826 155.826-155.826c102.4-102.4 235.965-155.826 378.435-155.826s280.487 57.878 378.435 155.826l151.374 151.374-151.374 160.278zM939.409 448l-89.043-89.043c-84.591-84.591-195.896-129.113-316.104-129.113s-231.513 44.522-316.104 129.113l-89.043 89.043 89.043 89.043c173.635 173.635 454.122 173.635 627.757 0l93.496-89.043zM636.661 448c0-56.554-45.846-102.4-102.4-102.4s-102.4 45.846-102.4 102.4c0 56.554 45.846 102.4 102.4 102.4s102.4-45.846 102.4-102.4z" />
<glyph unicode="&#xe901;" glyph-name="ic_view_all_clients" horiz-adv-x="957" d="M783.583 884.313h-703.443v75.687h703.443v-75.687zM877.078 167.513l75.687-75.687-75.687-75.687c-44.522-44.522-106.852-71.235-173.635-71.235s-124.661 26.713-173.635 71.235l-75.687 75.687 75.687 75.687c44.522 44.522 106.852 71.235 173.635 71.235s129.113-26.713 173.635-71.235zM854.817 91.826l-26.713 26.713c-66.783 66.783-178.087 66.783-249.322 0l-26.713-26.713 26.713-26.713c35.617-35.617 80.139-48.974 124.661-48.974s89.043 17.809 124.661 48.974l26.713 26.713zM703.443 149.704c-31.165 0-57.878-26.713-57.878-57.878s26.713-57.878 57.878-57.878c31.165 0 57.878 26.713 57.878 57.878 4.452 31.165-22.261 57.878-57.878 57.878zM173.635 212.035v-93.496h191.443l80.139 80.139c31.165 31.165 62.33 53.426 102.4 71.235 22.261 13.357 44.522 22.261 71.235 26.713-57.878 26.713-133.565 40.070-182.539 40.070-89.043 0-262.678-44.522-262.678-124.661zM560.974 510.33c0 71.235-57.878 124.661-124.661 124.661-71.235 0-124.661-57.878-124.661-124.661s57.878-124.661 124.661-124.661c66.783 0 124.661 53.426 124.661 124.661zM449.67-6.122l-17.809 17.809h-356.174v707.896h707.896v-427.409h17.809c13.357-4.452 22.261-4.452 35.617-8.904l26.713-8.904v520.904h-859.27v-859.27h512l-40.070 35.617c-13.357 4.452-22.261 13.357-26.713 22.261z" />
<glyph unicode="&#xe902;" glyph-name="ic_pending" horiz-adv-x="459" d="M4.452 826.435v-227.061l151.374-151.374-151.374-151.374v-227.061h454.122v227.061l-151.374 151.374 151.374 151.374v227.061h-454.122zM382.887 207.583v-62.33h-302.748v62.33c0 44.522 17.809 84.591 48.974 115.757l102.4 102.4 102.4-102.4c31.165-26.713 48.974-71.235 48.974-115.757zM231.513 465.809l-106.852 102.4c-31.165 31.165-44.522 75.687-44.522 120.209v62.33h302.748v-62.33c0-44.522-17.809-84.591-48.974-115.757l-102.4-106.852z" />
<glyph unicode="&#xe903;" glyph-name="ic_inactive" horiz-adv-x="766" d="M382.887 826.435c-209.252 0-378.435-169.183-378.435-378.435s169.183-378.435 378.435-378.435 378.435 169.183 378.435 378.435-169.183 378.435-378.435 378.435zM382.887 741.843c62.33 0 124.661-22.261 173.635-53.426l-409.6-409.6c-40.070 44.522-57.878 106.852-57.878 169.183 0 164.73 129.113 293.843 293.843 293.843zM382.887 154.157c-66.783 0-124.661 22.261-173.635 57.878l414.052 409.6c35.617-48.974 57.878-106.852 57.878-173.635-4.452-164.73-133.565-293.843-298.296-293.843z" />
<glyph unicode="&#xe904;" glyph-name="ic_edit" horiz-adv-x="712" d="M0 238.748v-146.922h146.922l436.313 436.313-146.922 151.374-436.313-440.765zM698.991 643.896c13.357 13.357 13.357 40.070 0 57.878l-93.496 93.496c-13.357 13.357-40.070 13.357-57.878 0l-71.235-71.235 146.922-146.922 75.687 66.783z" />
<glyph unicode="&#xe905;" glyph-name="check" d="M384 248.667l452 452 60-60-512-512-238 238 60 60z" />
<glyph unicode="&#xe906;" glyph-name="ic_delete" horiz-adv-x="668" d="M667.826 185.322l-262.678 262.678 262.678 262.678-71.235 71.235-262.678-262.678-262.678 262.678-71.235-71.235 262.678-262.678-262.678-262.678 71.235-71.235 262.678 262.678 262.678-262.678z" />
<glyph unicode="&#xe907;" glyph-name="accepted" horiz-adv-x="810" d="M739.061 746.296l-476.383-476.383-186.991 191.443-75.687-75.687 262.678-262.678 547.617 547.617z" />
<glyph unicode="&#xe908;" glyph-name="allocate" horiz-adv-x="748" d="M400.696 122.991c-22.261 31.165-17.809 75.687 13.357 97.948l71.235 53.426-26.713 35.617-71.235-53.426c-48.974-35.617-57.878-106.852-22.261-160.278 35.617-48.974 106.852-57.878 160.278-22.261l71.235 53.426-26.713 35.617-71.235-53.426c-31.165-22.261-75.687-13.357-97.948 13.357zM489.739 163.061l142.47 111.304-26.713 35.617-142.47-111.304 26.713-35.617zM569.878 394.574l-71.235-53.426 26.713-35.617 71.235 53.426c31.165 22.261 75.687 17.809 97.948-13.357s17.809-75.687-13.357-97.948l-71.235-53.426 26.713-35.617 71.235 53.426c48.974 35.617 57.878 106.852 22.261 160.278s-111.304 62.33-160.278 22.261zM169.183 688.417c0 93.496 75.687 169.183 169.183 169.183s169.183-75.687 169.183-169.183-80.139-164.73-173.635-164.73-164.73 71.235-164.73 164.73zM240.417 185.322h-240.417v84.591c0 111.304 222.609 169.183 333.913 169.183 40.070 0 97.948-8.904 155.826-22.261l-22.261-17.809-57.878-44.522-111.304-84.591c-26.713-22.261-48.974-48.974-57.878-84.591z" />
<glyph unicode="&#xe909;" glyph-name="radio" d="M512 661.333c-117.76 0-213.333-95.573-213.333-213.333s95.573-213.333 213.333-213.333 213.333 95.573 213.333 213.333-95.573 213.333-213.333 213.333zM512 874.667c-235.52 0-426.667-191.147-426.667-426.667s191.147-426.667 426.667-426.667 426.667 191.147 426.667 426.667-191.147 426.667-426.667 426.667zM512 106.667c-188.587 0-341.333 152.747-341.333 341.333s152.747 341.333 341.333 341.333 341.333-152.747 341.333-341.333-152.747-341.333-341.333-341.333z" />
<glyph unicode="&#xe90a;" glyph-name="addUser" horiz-adv-x="1408" d="M896 448c141.385 0 256 114.615 256 256s-114.615 256-256 256c-141.385 0-256-114.615-256-256v0c0-141.385 114.615-256 256-256v0zM320 576v192h-128v-192h-192v-128h192v-192h128v192h192v128zM896 320c-172.8 0-512-83.2-512-256v-128h1024v128c0 172.8-339.2 256-512 256z" />
<glyph unicode="&#xe90b;" glyph-name="pdf" horiz-adv-x="960" d="M957 682.8l-261 271.2c-3.8 3.8-8.8 6-14.2 6h-388.8c-43.6 0-79-35.4-79-78.8v-275.6h-157.4c-32.6 0-59-26.4-59-59v-295.4c0-32.6 26.4-59 59-59h157.6v-177.2c0-43.4 35.4-78.8 79-78.8h590.4c43.6 0 79 35.4 79 78.8v654.2c-0.2 5.2-2.2 10-5.6 13.6zM686.8 906.8l214.2-222.6h-214.2v222.6zM56.6 231.4c-10.8 0-19.6 8.8-19.6 19.6v295.6c0 10.8 8.8 19.6 19.6 19.6h531.8c10.8 0 19.6-8.8 19.6-19.6v-295.4c0-10.8-8.8-19.6-19.6-19.6h-531.8zM923 14.8c0-21.6-17.8-39.4-39.6-39.4h-590.4c-21.8 0-39.6 17.6-39.6 39.4v177.2h334.8c32.6 0 59 26.4 59 59v295.6c0 32.6-26.4 59-59 59h-334.6v275.6c0 21.8 17.8 39.6 39.6 39.6h354.4v-256c0-10.8 8.8-19.6 19.6-19.6h256l-0.2-630.4zM233 460.2c-6.6 8.6-14.6 14-24.4 16.6-6.4 1.6-19.8 2.6-40.6 2.6h-54.8v-169.2h34.2v63.8h22.2c15.4 0 27.2 0.8 35.4 2.4 6 1.4 12 4 17.8 8s10.6 9.6 14.4 16.6 5.6 15.8 5.6 26.2c0 13.6-3.2 24.6-9.8 33zM203.8 413.6c-2.6-3.8-6.2-6.6-10.6-8.4s-13.6-2.6-27-2.6h-18.6v48h16.6c12.4 0 20.6-0.4 24.6-1.2 5.6-1 10.2-3.6 13.8-7.6s5.4-9 5.4-15.2c-0.4-4.8-1.8-9.2-4.2-13zM407 433c-3.6 10.8-9 20-16.2 27.4s-15.6 12.6-25.6 15.6c-7.4 2.2-18.2 3.2-32.2 3.2h-62.4v-169.2h64.2c12.6 0 22.6 1.2 30.2 3.6 10 3.2 18 7.8 24 13.6 7.8 7.6 13.8 17.6 18.2 29.8 3.4 10 5.2 22 5.2 36 0.2 16-1.8 29.2-5.4 40zM373.8 363.6c-2.4-7.6-5.2-13-9-16.4-3.6-3.4-8.2-5.6-13.8-7-4.2-1-11.2-1.6-20.6-1.6h-25.6v112h15.4c14 0 23.2-0.6 28-1.6 6.4-1.4 11.6-4 15.8-8s7.4-9.4 9.6-16.4c2.4-7 3.4-17 3.4-30.2 0.2-12.8-1-23.2-3.2-30.8zM557.6 450.6v28.8h-116v-169.2h34.2v71.8h70.6v28.6h-70.6v40z" />
<glyph unicode="&#xe90c;" glyph-name="ic-settings" horiz-adv-x="998" d="M880.64 396.8c0 15.36 5.12 30.72 5.12 51.2s0 35.84-5.12 51.2l107.52 81.92c10.24 5.12 10.24 20.48 5.12 30.72l-102.4 179.2c-5.12 10.24-20.48 15.36-30.72 10.24l-128-51.2c-25.6 20.48-56.32 35.84-87.040 51.2l-20.48 138.24c0 10.24-10.24 20.48-25.6 20.48h-204.8c-10.24 0-20.48-10.24-25.6-20.48l-15.36-138.24c-30.72-15.36-61.44-30.72-87.040-51.2l-128 51.2c-15.36 5.12-25.6 0-30.72-10.24l-102.4-179.2c-10.24-5.12-5.12-20.48 5.12-30.72l107.52-81.92c0-15.36-5.12-30.72-5.12-51.2s0-35.84 5.12-51.2l-107.52-81.92c-10.24-10.24-15.36-20.48-5.12-35.84l102.4-179.2c5.12-10.24 20.48-15.36 30.72-10.24l128 51.2c25.6-20.48 56.32-35.84 87.040-51.2l20.48-133.12c0-10.24 10.24-20.48 25.6-20.48h204.8c15.36 0 25.6 10.24 25.6 20.48l20.48 133.12c30.72 15.36 61.44 30.72 87.040 51.2l128-51.2c10.24-5.12 25.6 0 30.72 10.24l102.4 179.2c5.12 10.24 5.12 25.6-5.12 30.72l-112.64 87.040zM496.64 268.8c-97.28 0-179.2 81.92-179.2 179.2s81.92 179.2 179.2 179.2 179.2-81.92 179.2-179.2-76.8-179.2-179.2-179.2z" />
<glyph unicode="&#xe90d;" glyph-name="remove" d="M626.784 447.968l195.072-195.072c12.672-12.672 12.672-33.248 0-45.92l-68.832-68.832c-12.672-12.672-33.216-12.672-45.92 0l-195.104 195.072-195.104-195.072c-12.672-12.672-33.216-12.672-45.888 0l-68.864 68.832c-12.672 12.672-12.672 33.216 0 45.92l195.104 195.072-195.104 195.104c-12.672 12.672-12.672 33.248 0 45.92l68.896 68.832c12.672 12.672 33.216 12.672 45.888 0l195.072-195.104 195.104 195.104c12.672 12.672 33.216 12.672 45.92 0l68.832-68.864c12.672-12.672 12.672-33.216 0-45.92l-195.072-195.072z" />
<glyph unicode="&#xe90e;" glyph-name="access-control" horiz-adv-x="1069" d="M619.23 679.653c0-51.187 41.737-92.924 92.924-92.924s92.924 41.737 92.924 92.924c0 51.187-41.737 92.924-92.924 92.924s-92.924-41.737-92.924-92.924zM755.466 679.653c0-23.887-19.425-43.312-43.312-43.312s-43.312 19.425-43.312 43.312c0 23.887 19.425 43.312 43.312 43.312s43.312-19.425 43.312-43.312zM1055.5 188.522l-36.225 28.612c0.262 3.675 0.262 7.35 0.262 10.762s0 7.087-0.262 10.762l36.487 28.35c13.65 10.762 17.587 29.925 8.925 45.412l-44.624 77.174c-8.4 14.962-27.037 21.787-43.574 15.75l-43.312-17.325c-6.037 3.937-12.075 7.612-18.375 10.762l-6.562 45.412c-2.362 17.587-17.587 30.712-35.437 30.712h-88.986c-17.85 0-33.075-13.125-35.175-30.712l-6.562-45.674c-6.037-3.15-12.337-6.562-18.375-10.762l-43.049 17.325c-16.537 6.562-35.437-0.262-43.837-15.75l-44.362-76.649c-8.925-15.225-5.25-35.175 8.662-45.937l36.225-28.35c-0.262-3.675-0.262-7.35-0.262-10.762s0-7.087 0.262-10.762l-36.487-28.35c-13.65-10.762-17.587-29.925-8.925-45.412l44.624-77.174c8.4-14.962 27.037-21.787 43.574-15.75l43.312 17.325c6.037-3.937 12.075-7.612 18.375-10.762l6.562-45.412c2.362-17.587 17.587-30.712 35.437-30.712h88.986c17.85 0 33.075 13.125 35.175 30.712l6.562 45.674c6.037 3.15 12.337 6.562 18.375 10.762l43.049-17.325c16.537-6.562 35.437 0.262 43.837 15.75l44.362 76.912 0.262 0.525c8.662 14.962 4.987 34.125-8.925 44.887zM689.317 195.084l-1.837 13.912c-1.050 7.35-1.312 13.387-1.312 18.637s0.525 11.287 1.312 18.637l1.837 13.912-48.562 38.062 32.812 56.699 57.224-22.837 11.025 8.4c11.025 8.137 21.525 14.437 32.025 18.637l13.125 5.25 8.662 61.162h65.362l8.662-61.162 13.125-5.25c11.287-4.725 21.787-10.762 32.025-18.637l11.025-8.662 57.224 23.1 32.812-56.699-48.562-38.062 1.837-13.912c1.050-7.612 1.312-13.387 1.312-18.637 0-5.512-0.525-11.025-1.312-18.637l-1.837-13.912 48.562-38.062-32.812-56.699-57.224 22.837-11.025-8.4c-11.025-8.137-21.525-14.437-32.025-18.637l-13.125-5.25-8.662-61.162h-65.362l-8.662 61.162-13.125 5.25c-11.025 4.462-21.787 10.762-32.025 18.637l-11.025 8.662-57.224-23.1-32.812 56.699 48.562 38.062zM828.177 125.26c56.437 0 102.374 45.937 102.374 102.374s-45.937 102.374-102.374 102.374-102.374-45.937-102.374-102.374 45.937-102.374 102.374-102.374zM775.153 227.634c0 29.4 23.887 53.287 53.287 53.287s53.287-23.887 53.287-53.287-23.887-53.287-53.287-53.287-53.287 24.15-53.287 53.287zM537.331 331.32v0c3.15 5.512 2.362 12.337-1.837 16.8-4.2 4.725-10.762 6.037-16.537 3.412-3.412-1.575-6.3-3.675-8.925-6.037l-81.637-81.374h-64.837c-18.112 0-32.812-14.7-32.812-32.812v-45.674h-16.537c-18.112 0-32.812-14.7-32.812-32.812v-16.537h-52.237c-18.112 0-32.812-14.7-32.812-32.812v-72.187l-30.45-30.187h-100.536v24.412l300.821 300.821c10.762 10.762 12.337 28.087 3.412 39.9-5.25 7.087-13.387 11.55-22.050 12.075s-17.325-2.625-23.625-8.662l-258.559-258.559v22.575l328.121 328.121c9.45 9.712 11.812 23.625 6.562 35.962-13.65 31.237-21.525 64.312-23.362 98.436-3.937 76.912 22.837 150.673 75.862 207.635 52.762 56.962 124.161 88.986 200.81 90.561 2.1 0 4.2 0 6.037 0 74.549 0 144.636-28.612 197.923-80.849 54.862-53.812 85.049-125.736 85.049-202.385 0-16.275-1.312-32.55-4.2-48.299l-1.050-6.037 5.512-2.625c9.975-4.725 16.8-13.912 18.375-24.937 1.312-8.925 8.662-15.487 17.587-16.012s16.8 5.25 18.9 14.175c6.825 27.3 10.237 55.387 10.237 83.736 0 92.924-36.225 180.598-102.111 246.484-65.362 66.149-153.036 102.374-245.959 102.374-192.148 0-348.596-156.448-348.596-348.596 0-40.95 7.087-80.849 20.737-118.911l-322.346-322.346c-6.3-6.3-9.45-14.437-9.45-23.1v-178.235c0-18.112 14.7-32.812 32.812-32.812h146.998c8.662 0 17.062 3.412 23.1 9.45l49.612 49.349c6.037 6.037 9.712 14.437 9.712 23.1v53.024h52.762c18.112 0 32.812 14.7 32.812 32.812v16.537h16.537c18.112 0 32.812 14.7 32.812 32.812v45.674h45.674c8.662 0 17.062 3.412 23.1 9.712l80.062 80.062-4.725 5.512c-9.45 10.5-10.762 25.462-3.937 37.275z" />
<glyph unicode="&#xe90f;" glyph-name="edit" d="M0 151.579v-215.579h215.579l625.179 630.568-215.579 215.579-625.179-630.568zM1007.832 728.253c21.558 21.558 21.558 59.284 0 80.842l-134.737 134.737c-21.558 21.558-59.284 21.558-80.842 0l-102.4-102.4 215.579-215.579 102.4 102.4z" />
<glyph unicode="&#xe910;" glyph-name="add" d="M1024 400.213v95.573c0 6.827-6.827 6.827-6.827 6.827h-450.56v450.56c0 0-6.827 6.827-6.827 6.827h-95.573c0 0-6.827-6.827-6.827-6.827v-450.56h-450.56c0 0-6.827-6.827-6.827-6.827v-88.747c0-6.827 6.827-6.827 6.827-6.827h450.56v-450.56c0-6.827 6.827-6.827 6.827-6.827h88.747c6.827 0 6.827 6.827 6.827 6.827v443.733h450.56c6.827 0 13.653 6.827 13.653 6.827z" />
<glyph unicode="&#xe911;" glyph-name="add-company" horiz-adv-x="1360" d="M509.876 730.556h-195.452c-16.996 0-33.992-12.747-33.992-25.494v-195.452c0-16.996 16.996-25.494 33.992-25.494h195.452c16.996 0 33.992 8.498 33.992 25.494v195.452c-4.249 12.747-16.996 25.494-33.992 25.494zM484.382 543.602h-135.967v123.22h135.967v-123.22zM509.876 445.876h-195.452c-16.996 0-33.992-8.498-33.992-25.494v-195.452c0-16.996 16.996-29.743 33.992-29.743h195.452c16.996 0 33.992 8.498 33.992 25.494v195.452c-4.249 16.996-16.996 29.743-33.992 29.743zM484.382 258.921h-135.967v118.971h135.967v-118.971zM892.282 730.556h-191.203c-16.996 0-33.992-8.498-33.992-25.494v-195.452c0-16.996 16.996-25.494 33.992-25.494h191.203c16.996 0 33.992 8.498 33.992 25.494v195.452c-4.249 12.747-16.996 25.494-33.992 25.494zM862.539 543.602h-135.967v123.22h135.967v-123.22zM786.058 195.187h-89.228c-16.996 0-33.992 8.498-33.992 25.494v195.452c0 16.996 16.996 25.494 33.992 25.494h195.452c-21.245-16.996-42.49-42.49-55.237-63.734h-114.722v-118.971h63.734c-4.249-16.996-4.249-33.992-4.249-55.237 4.249-4.249 4.249-4.249 4.249-8.498v0zM1134.473 960v0h-12.747c0 0-458.888 4.249-769.062 4.249-76.481 0-144.465 0-191.203 0-42.49 0-63.734 0-76.481-4.249v0h-4.249c-21.245 0-42.49-21.245-42.49-42.49v-101.975c0-21.245 16.996-42.49 38.241-42.49v-624.598h-76.481v-80.73h815.801l-8.498 12.747c-8.498 21.245-16.996 42.49-16.996 59.485l-4.249 12.747h-624.598v624.598h892.282v-254.938l12.747 4.249c8.498 0 21.245 4.249 33.992 4.249s16.996 0 25.494-4.249h12.747v250.689c21.245 4.249 38.241 21.245 38.241 42.49v97.726c0 21.245-21.245 42.49-42.49 42.49v0zM1100.481 853.776h-985.759v42.49h985.759v-42.49zM1096.232 467.12c-144.465 0-263.436-118.971-263.436-263.436s118.971-267.685 263.436-267.685 263.436 118.971 263.436 263.436-118.971 267.685-263.436 267.685zM1283.187 199.436c0-106.224-84.979-191.203-186.954-191.203s-186.954 84.979-186.954 191.203 84.979 191.203 186.954 191.203 186.954-84.979 186.954-191.203zM1125.975 229.178h89.228v-55.237h-89.228v-89.228h-55.237v89.228h-89.228v55.237h89.228v93.477h55.237c0 0 0-93.477 0-93.477z" />
<glyph unicode="&#xe912;" glyph-name="send" horiz-adv-x="1195" d="M0-64l1194.667 512-1194.667 512v-398.222l853.333-113.778-853.333-113.778v-398.222z" />
<glyph unicode="&#xe913;" glyph-name="audit" horiz-adv-x="1074" d="M913.207 144.157l-16.787 6.715-6.715 6.715c26.859 36.931 36.931 77.22 36.931 120.866 0 114.151-90.649 201.443-201.443 201.443s-201.443-90.649-201.443-201.443 90.649-201.443 201.443-201.443c43.646 0 87.292 16.787 120.866 36.931l6.715-6.715 6.715-16.787 154.439-154.439 53.718 53.718-154.439 154.439zM634.544 184.446c-23.502 23.502-36.931 57.075-36.931 90.649s13.43 67.148 36.931 90.649 57.075 36.931 90.649 36.931c33.574 0 67.148-13.43 90.649-36.931s36.931-57.075 36.931-90.649c0-33.574-13.43-67.148-36.931-90.649-47.003-47.003-134.295-47.003-181.298 0zM392.813 177.731c-16.787 0-26.859 13.43-26.859 26.859v26.859h-40.289c-16.787 0-26.859 13.43-26.859 26.859 0 16.787 13.43 26.859 26.859 26.859h90.649c16.787 0 26.859 13.43 26.859 26.859 0 16.787-13.43 26.859-26.859 26.859h-50.361c-47.003 0-80.577 36.931-80.577 80.577 0 47.003 36.931 80.577 80.577 80.577v26.859c0 16.787 13.43 26.859 26.859 26.859s26.859-13.43 26.859-26.859v-26.859h36.931c16.787 0 26.859-13.43 26.859-26.859s-13.43-26.859-26.859-26.859h-87.292c-16.787 0-26.859-13.43-26.859-26.859 0-16.787 13.43-26.859 26.859-26.859h50.361c47.003 0 80.577-36.931 80.577-80.577s-36.931-80.577-80.577-80.577v-26.859c-3.357-13.43-13.43-26.859-26.859-26.859zM661.403 600.761c-43.646 50.361-83.934 87.292-114.151 110.793l87.292 157.797c10.072 16.787 6.715 36.931-6.715 50.361-30.216 23.502-63.79 40.289-97.364 40.289-30.216 0-60.433-13.43-80.577-20.144-13.43-6.715-26.859-10.072-36.931-10.072-47.003 16.787-80.577 26.859-117.508 26.859-47.003 0-87.292-16.787-127.58-57.075-13.43-16.787-13.43-40.289-3.357-57.075l90.649-134.295c-26.859-20.144-70.505-60.433-110.793-107.436-40.289-50.361-73.862-100.721-100.721-157.797-26.859-73.862-43.646-144.367-43.646-218.23 0-104.079 87.292-191.37 191.37-191.37h419.672c6.715 0 13.43 3.357 20.144 3.357-13.43 6.715-23.502 13.43-33.574 16.787-10.072 6.715-20.144 13.43-26.859 20.144l-3.357 3.357c-6.715 6.715-16.787 13.43-20.144 20.144s-13.43 13.43-16.787 20.144h-332.38c-60.433 0-107.436 47.003-107.436 107.436 0 114.151 40.289 221.587 124.223 318.951 40.289 53.718 87.292 90.649 114.151 110.793h154.439c16.787-13.43 67.148-50.361 114.151-110.793 6.715-10.072 16.787-16.787 20.144-26.859 6.715 3.357 13.43 6.715 16.787 10.072 6.715 3.357 13.43 6.715 20.144 6.715h3.357c6.715 3.357 13.43 6.715 20.144 6.715 6.715 3.357 16.787 3.357 20.144 6.715-10.072 16.787-23.502 33.574-36.931 53.718v0zM466.675 738.413h-130.938l-80.577 120.866c33.574 20.144 70.505 10.072 124.223-10.072 33.574-13.43 73.862 0 100.721 13.43 16.787 6.715 33.574 13.43 47.003 13.43 3.357 0 6.715 0 6.715 0 3.357-3.357-67.148-137.652-67.148-137.652z" />
<glyph unicode="&#xe914;" glyph-name="accounting" horiz-adv-x="1179" d="M1138.187 17.036h-18.417v909.813c0 18.417-14.734 33.151-33.151 33.151s-33.151-14.734-33.151-33.151v-81.036h-405.18v14.734c0 36.835-29.468 62.619-62.619 62.619h-3.683c-36.835 0-62.619-29.468-62.619-62.619v-14.734h-58.935v14.734c0 36.835-29.468 62.619-62.619 62.619h-3.683c-36.835 0-62.619-29.468-62.619-62.619v-14.734h-22.101v14.734c0 36.835-29.468 62.619-62.619 62.619h-7.367c-36.835 0-62.619-29.468-62.619-62.619v-14.734h-58.935v81.036c0 18.417-14.734 33.151-33.151 33.151s-33.151-14.734-33.151-33.151v-909.813h-18.417c-18.417 0-33.151-14.734-33.151-33.151v-14.734c0-18.417 14.734-33.151 33.151-33.151h1105.036c18.417 0 33.151 14.734 33.151 33.151v14.734c0 18.417-14.734 33.151-33.151 33.151v0zM191.54 720.576c14.734-14.734 29.468-18.417 47.885-18.417h3.683c36.835 0 62.619 29.468 62.619 62.619v14.734h18.417v-14.734c0-36.835 29.468-62.619 62.619-62.619h3.683c36.835 0 62.619 29.468 62.619 62.619v14.734h58.935v-14.734c0-36.835 29.468-62.619 62.619-62.619h3.683c36.835 0 62.619 29.468 62.619 62.619v14.734h405.18v-184.173h-51.568v14.734c0 36.835-29.468 62.619-62.619 62.619h-11.050c-36.835 0-62.619-29.468-62.619-62.619v-14.734h-47.885v14.734c0 36.835-29.468 62.619-62.619 62.619h-3.683c-36.835 0-62.619-29.468-62.619-62.619v-14.734h-563.568v184.173h55.252v-14.734c0-18.417 7.367-36.835 18.417-44.201v0zM117.871 529.036h559.885v-14.734c0-36.835 29.468-62.619 62.619-62.619h3.683c36.835 0 62.619 29.468 62.619 62.619v14.734h47.885v-14.734c0-36.835 29.468-62.619 62.619-62.619h3.683c36.835 0 62.619 29.468 62.619 62.619v14.734h62.619v-221.007h-235.741v14.734c0 36.835-29.468 62.619-62.619 62.619h-3.683c-36.835 0-62.619-29.468-62.619-62.619v-14.734h-106.82v14.734c0 36.835-29.468 62.619-62.619 62.619h-3.683c-36.835 0-62.619-29.468-62.619-62.619v-14.734h-18.417v14.734c0 36.835-29.468 62.619-62.619 62.619h-14.734c-36.835 0-62.619-29.468-62.619-62.619v-14.734h-11.050v14.734c0 36.835-29.468 62.619-62.619 62.619h-7.367c-36.835 0-62.619-29.468-62.619-62.619v-14.734h-25.784v221.007zM117.871 241.727h25.784v-14.734c0-36.835 29.468-62.619 62.619-62.619h3.683c36.835 0 62.619 29.468 62.619 62.619v14.734h11.050v-14.734c0-36.835 29.468-62.619 62.619-62.619h3.683c36.835 0 62.619 29.468 62.619 62.619v14.734h18.417v-14.734c0-36.835 29.468-62.619 62.619-62.619h3.683c36.835 0 62.619 29.468 62.619 62.619v14.734h106.82v-14.734c0-36.835 29.468-62.619 62.619-62.619h3.683c36.835 0 62.619 29.468 62.619 62.619v14.734h243.108v-224.691h-920.863v224.691z" />
<glyph unicode="&#xe915;" glyph-name="all-clients" horiz-adv-x="917" d="M634.811 960v-53.622h-454.919v53.622h454.919zM74.378 859.676v-53.622h667.676v53.622h-667.676zM916.757 76.108l-67.459-67.459c-43.243-43.243-102.054-67.459-162.595-67.459s-119.351 24.216-162.595 67.459l-69.189 69.189 67.459 67.459c43.243 43.243 102.054 67.459 162.595 67.459 62.27 0 119.351-24.216 162.595-67.459v0l69.189-69.189zM814.703 112.432c-70.919 70.919-188.541 70.919-259.459 0l-34.595-34.595 36.324-36.324c70.919-70.919 188.541-70.919 259.459 0l34.595 34.595-36.324 36.324zM686.703 128c-27.676 0-50.162-22.486-50.162-50.162s22.486-50.162 50.162-50.162c27.676 0 50.162 22.486 50.162 50.162s-22.486 50.162-50.162 50.162zM409.946 316.541c-84.757 0-252.541-43.243-252.541-122.811v-89.946h183.351l48.432 48.432h-183.351v41.514c0 20.757 50.162 41.514 65.73 46.703 43.243 17.297 93.405 25.946 136.649 25.946 32.865 0 70.919-5.189 107.243-17.297 22.486 10.378 44.973 19.027 69.189 25.946-55.351 29.405-128 41.514-174.703 41.514zM532.757 484.324c0-67.459-55.351-122.811-122.811-122.811s-122.811 55.351-122.811 122.811c0 67.459 55.351 122.811 122.811 122.811s122.811-55.351 122.811-122.811zM482.595 484.324c0 41.514-32.865 74.378-74.378 74.378s-74.378-32.865-74.378-74.378c0-41.514 32.865-74.378 74.378-74.378s74.378 34.595 74.378 74.378zM0 752.432v-816.432h461.838l-20.757 17.297c-8.649 6.919-17.297 13.838-24.216 22.486l-13.838 13.838h-349.405v707.459h707.459v-415.135l8.649-1.73c10.378-1.73 22.486-5.189 32.865-8.649l13.838-3.459v484.324h-816.432z" />
<glyph unicode="&#xe916;" glyph-name="amend-sections" horiz-adv-x="1429" d="M1082.701 145.148c80.007 0 145.23 65.223 145.23 145.23s-65.223 145.23-145.23 145.23-145.23-65.223-145.23-145.23c0-80.224 65.223-145.23 145.23-145.23zM1001.607 290.378c0 44.786 36.525 81.311 81.311 81.311s81.311-36.525 81.311-81.311c0-44.786-36.525-81.311-81.311-81.311-45.004 0-81.311 36.525-81.311 81.311zM1410.989 230.373l-54.352 42.612c0.435 6.087 0.652 11.74 0.652 17.393s-0.217 11.305-0.652 17.393l54.57 42.612c18.48 14.566 23.48 40.221 11.958 61.31l-64.788 112.183c-11.305 20.219-36.525 29.568-58.483 21.524l-65.223-26.089c-9.566 6.522-19.567 12.175-29.785 17.393l-9.783 68.049c-3.044 23.48-23.48 41.308-47.613 41.308h-129.359c-23.915 0-44.352-17.828-47.613-41.308l-9.783-68.267c-10.001-5-19.784-10.653-29.785-17.393l-64.571 25.654c-22.176 8.696-47.613-0.435-59.135-21.089l-64.571-111.531c-11.958-20.437-6.957-47.178 11.74-61.962l54.352-42.612c-0.435-6.087-0.652-11.74-0.652-17.393 0-5.435 0.217-11.305 0.652-17.393l-54.352-42.395c-18.48-14.566-23.48-40.221-11.958-61.31l64.788-112.183c11.305-20.219 36.525-29.568 58.483-21.524l65.223 26.089c9.566-6.522 19.567-12.175 29.785-17.393l9.783-68.049c3.044-23.48 23.48-41.308 47.613-41.308h129.359c23.915 0 44.352 17.828 47.613 41.090l9.783 68.267c10.001 5 19.784 10.653 29.785 17.393l64.571-25.872c22.176-8.696 47.613 0.435 59.135 21.089l64.571 111.749 0.435 0.652c11.305 21.089 6.087 46.743-12.392 61.31zM876.379 244.504l-2.174 18.045c-1.304 11.088-1.957 19.784-1.957 27.828s0.652 16.741 1.957 27.828l2.174 18.045-71.528 55.874 51.091 88.268 84.138-33.916 14.349 10.87c16.088 12.175 31.742 21.089 47.613 27.611l16.958 6.957 12.827 90.008h101.748l12.827-90.008 16.958-6.957c16.741-6.74 32.177-15.871 47.395-27.394l14.566-11.088 84.355 33.916 51.091-88.268-71.745-56.092 2.174-18.045c1.522-11.305 1.957-19.567 1.957-27.828 0-8.044-0.652-16.306-1.957-27.828l-2.174-18.045 71.528-55.874-51.091-88.268-84.138 33.916-14.349-10.87c-16.088-12.175-31.742-21.306-47.613-27.611l-16.958-6.957-12.827-90.008h-101.748l-12.827 90.008-16.958 6.957c-16.523 6.74-32.394 16.088-47.395 27.394l-14.566 11.088-84.355-33.916-51.091 88.268 71.745 56.092zM0.87 956.739h1174.013v-96.965h-1174.013v96.965zM612.226 458.87l24.785 43.047h-636.141v-96.965h605.704c-5.87 17.61-4.131 37.177 5.653 53.918zM701.364-32.693l-46.091 79.572h-654.403v-96.965h714.626c-5.653 5-10.436 10.653-14.132 17.393z" />
<glyph unicode="&#xe917;" glyph-name="email" d="M853.333 789.333h-682.667c-46.933 0-84.907-38.4-84.907-85.333l-0.427-512c0-46.933 38.4-85.333 85.333-85.333h682.667c46.933 0 85.333 38.4 85.333 85.333v512c0 46.933-38.4 85.333-85.333 85.333zM853.333 618.667l-341.333-213.333-341.333 213.333v85.333l341.333-213.333 341.333 213.333v-85.333z" />
<glyph unicode="&#xe918;" glyph-name="ic_attached_file" horiz-adv-x="760" d="M692.282 599.437l-254.798-485.559c-48.075-96.15-168.263-129.803-259.606-81.728-96.15 48.075-129.803 168.263-81.728 259.606l278.836 528.826c28.845 57.69 105.765 81.728 163.455 48.075s81.728-105.765 48.075-163.455l-235.568-447.099c-9.615-19.23-38.46-24.038-62.498-14.423s-33.653 43.268-19.23 67.305l211.531 403.831-62.498 33.653-211.531-403.831c-28.845-57.69-9.615-129.803 48.075-163.455 57.69-28.845 129.803-9.615 163.455 48.075l235.568 447.099c48.075 96.15 14.423 211.531-81.728 259.606s-211.531 14.423-259.606-81.728l-278.836-528.826c-67.305-129.803-19.23-288.451 110.573-355.756s288.451-19.23 355.756 110.573l259.606 490.366-67.305 28.845z" />
<glyph unicode="&#xe919;" glyph-name="upload" horiz-adv-x="854" d="M427.154 960l-427.154-588.069h225.28v-435.931h403.749v435.931h225.28l-427.154 588.069zM550.034 450.926v-435.931h-245.76v435.931h-149.211l272.091 374.491 272.091-374.491h-149.211z" />
<glyph unicode="&#xe91a;" glyph-name="dropdown" d="M989.718 728.967c-40.245 29.811-89.432 19.377-119.243-10.434l-359.22-378.597-357.729 378.597c-29.811 29.811-80.489 40.245-119.243 10.434s-40.245-70.055-10.434-110.3l429.275-438.218c19.377-19.377 40.245-29.811 59.622-29.811v0 0 0 0c19.377 0 40.245 10.434 59.622 29.811l429.275 438.218c28.32 40.245 28.32 78.999-11.924 110.3z" />
<glyph unicode="&#xe91b;" glyph-name="ic_dots" horiz-adv-x="256" d="M128 704c70.4 0 128 57.6 128 128s-57.6 128-128 128-128-57.6-128-128 57.6-128 128-128zM128 576c-70.4 0-128-57.6-128-128s57.6-128 128-128 128 57.6 128 128-57.6 128-128 128zM128 192c-70.4 0-128-57.6-128-128s57.6-128 128-128 128 57.6 128 128-57.6 128-128 128z" />
<glyph unicode="&#xe91c;" glyph-name="ic_folder" horiz-adv-x="1273" d="M509.347 960h-382.010c-68.974 0-127.337-58.363-127.337-127.337v-764.021c0-68.974 58.363-127.337 127.337-127.337h1024c68.974 0 127.337 58.363 127.337 127.337v636.684c0 68.974-58.363 127.337-127.337 127.337h-514.653l-127.337 127.337z" />
<glyph unicode="&#xe91d;" glyph-name="ic_opened-folder" horiz-adv-x="1440" d="M1361.318 586.541v102.4c0 84.329-66.259 150.588-150.588 150.588h-469.835l-120.471 120.471h-373.459c-78.306 0-150.588-66.259-150.588-150.588v-108.424c-66.259-12.047-108.424-54.212-96.376-108.424l96.376-475.859v-30.118c0-84.329 66.259-150.588 150.588-150.588h963.765c84.329 0 150.588 66.259 150.588 150.588v30.118l78.306 373.459c12.047 42.165-24.094 78.306-78.306 96.376zM246.965 899.765h349.365l120.471-120.471h493.929c48.188 0 90.353-42.165 90.353-90.353v-96.376h-572.235l-150.588 108.424h-421.647v108.424c0 48.188 42.165 90.353 90.353 90.353z" />
<glyph unicode="&#xe91e;" glyph-name="user" d="M512 448c140.8 0 256 115.2 256 256s-115.2 256-256 256-256-115.2-256-256 115.2-256 256-256zM512 320c-168.96 0-509.44-84.48-509.44-256v-128h1018.88v128c0 171.52-340.48 256-509.44 256z" />
<glyph unicode="&#xe91f;" glyph-name="save" d="M796.444 960h-682.667c-62.838 0-113.778-50.94-113.778-113.778v-796.444c0-62.838 50.94-113.778 113.778-113.778h796.444c62.838 0 113.778 50.94 113.778 113.778v682.667zM512 49.778c-94.257 0-170.667 76.41-170.667 170.667s76.41 170.667 170.667 170.667c94.257 0 170.667-76.41 170.667-170.667s-76.41-170.667-170.667-170.667zM682.667 618.667h-568.889v227.556h568.889v-227.556z" />
<glyph unicode="&#xe920;" glyph-name="next" d="M1024 512h-780.8l358.4 358.4-89.6 89.6-512-512 512-512 89.6 89.6-358.4 358.4h780.8v128z" />
<glyph unicode="&#xe921;" glyph-name="step-icon" horiz-adv-x="900" d="M0 385.908c0 294.819 449.908 574.092 449.908 574.092s450.001-273.036 450.001-574.092c0-248.503-201.452-449.955-449.955-449.955s-449.955 201.452-449.955 449.955z" />
<glyph unicode="&#xe922;" glyph-name="search" d="M731.847 315.975h-46.253l-16.393 15.808c57.13 66.262 91.923 153.187 91.923 248.239 0 210.501-170.645 381.146-381.146 381.146s-381.146-170.645-381.146-381.146c0-210.501 170.645-381.146 381.146-381.146 95.051 0 181.976 34.794 248.733 92.34l15.314-16.81v-46.253l292.739-292.739 87.236 87.822zM380.56 315.975c-145.508 0-263.465 117.957-263.465 263.465s117.957 263.465 263.465 263.465c145.508 0 263.465-117.957 263.465-263.465 0-0.174 0.001-0.38 0.001-0.586 0-145.184-117.695-262.879-262.879-262.879-0.206 0-0.412 0-0.618 0.001z" />
<glyph unicode="&#xe923;" glyph-name="database" d="M967.68 796.16c-23.040 81.92-174.080 163.84-460.8 163.84-289.28 0-440.32-81.92-463.36-163.84-2.56-2.56-5.12-7.68-5.12-12.8v-670.72c0-5.12 0-7.68 2.56-12.8 25.6-94.72 220.16-163.84 463.36-163.84s437.76 69.12 463.36 163.84c2.56 5.12 2.56 7.68 2.56 12.8v670.72c2.56 5.12 0 10.24-2.56 12.8zM506.88 0c-238.080 0-394.24 69.12-401.92 117.76 0 0 0 0 0 2.56v122.88c81.92-56.32 227.84-89.6 404.48-89.6s322.56 33.28 404.48 89.6v-122.88c0 0 0-2.56 0-2.56-12.8-48.64-171.52-117.76-407.040-117.76zM102.4 355.84v104.96c81.92-56.32 227.84-89.6 404.48-89.6s322.56 33.28 404.48 89.6v-104.96c0-5.12 0-7.68 0-12.8 0 0 0-2.56 0-2.56s0-2.56 0-5.12v0c0-2.56 0-2.56-2.56-5.12 0-2.56 0-2.56-2.56-5.12 0-2.56-2.56-2.56-2.56-5.12s-2.56-2.56-2.56-5.12-2.56-5.12-5.12-5.12c-2.56 0-2.56-2.56-5.12-2.56-2.56-2.56-5.12-5.12-7.68-7.68l-7.68-5.12c-5.12-2.56-7.68-5.12-12.8-7.68l-2.56-2.56c-5.12-2.56-10.24-5.12-15.36-7.68h-2.56c-7.68-2.56-12.8-5.12-20.48-10.24-40.96-15.36-94.72-30.72-153.6-38.4-12.8-2.56-23.040-2.56-35.84-5.12h-5.12c-10.24 0-23.040-2.56-33.28-2.56-2.56 0-5.12 0-10.24 0h-10.24c-7.68 0-12.8 0-20.48 0-28.16 0-58.88 0-87.040 0-7.68 0-12.8 0-20.48 0h-12.8c-2.56 0-7.68 0-10.24 0-10.24 0-23.040 2.56-33.28 2.56h-5.12c-12.8 2.56-25.6 2.56-38.4 5.12-58.88 7.68-110.080 23.040-153.6 38.4-7.68 2.56-15.36 5.12-20.48 7.68h-2.56c-5.12 2.56-10.24 5.12-15.36 7.68l-2.56 2.56c-7.68 5.12-10.24 7.68-15.36 10.24l-5.12 2.56c-2.56 2.56-5.12 5.12-7.68 7.68-2.56 0-2.56 2.56-5.12 2.56-2.56 2.56-5.12 5.12-5.12 5.12 0 2.56-2.56 2.56-2.56 5.12s-2.56 2.56-2.56 5.12c0 2.56-2.56 2.56-2.56 5.12s0 2.56-2.56 5.12c0 2.56 0 5.12 0 5.12 0 2.56 0 2.56 0 5.12 0 5.12 0 7.68 0 12.8zM102.4 573.44v104.96c2.56-2.56 5.12-2.56 7.68-5.12l5.12-2.56c5.12-2.56 10.24-7.68 17.92-10.24l7.68-2.56c7.68-2.56 12.8-7.68 23.040-10.24h2.56c7.68-2.56 17.92-7.68 28.16-10.24l7.68-2.56c7.68-2.56 15.36-5.12 23.040-7.68l7.68-2.56c10.24-2.56 23.040-5.12 33.28-7.68h5.12c10.24-2.56 20.48-5.12 30.72-5.12l10.24-2.56c10.24-2.56 20.48-2.56 33.28-5.12h7.68c12.8-2.56 28.16-2.56 43.52-5.12h10.24c12.8 0 23.040-2.56 35.84-2.56h12.8c30.72 0 66.56 0 97.28 0h12.8c12.8 0 23.040 0 35.84 2.56h10.24c15.36 0 28.16 2.56 43.52 5.12h7.68c10.24 2.56 20.48 2.56 33.28 5.12l10.24 2.56c10.24 2.56 20.48 5.12 30.72 5.12h5.12c12.8 2.56 23.040 5.12 33.28 7.68l7.68 2.56c7.68 2.56 15.36 5.12 23.040 7.68l7.68 2.56c10.24 2.56 17.92 7.68 28.16 10.24l2.56 2.56c7.68 2.56 15.36 7.68 20.48 10.24l7.68 2.56c5.12 2.56 12.8 7.68 17.92 10.24l5.12 2.56c2.56 2.56 5.12 2.56 7.68 5.12v-104.96c0-5.12 0-7.68 0-12.8 0 0 0-2.56 0-2.56s0-2.56 0-5.12c0-2.56 0-2.56-2.56-5.12 0-2.56 0-2.56-2.56-5.12 0-2.56-2.56-2.56-2.56-5.12s-2.56-2.56-2.56-5.12-2.56-5.12-5.12-5.12c0 0-2.56-2.56-5.12-2.56-2.56-2.56-5.12-5.12-7.68-7.68l-5.12-2.56c-2.56-2.56-7.68-5.12-12.8-7.68l-2.56-2.56c-5.12-2.56-10.24-5.12-15.36-7.68h-2.56c-7.68-2.56-12.8-5.12-20.48-10.24-40.96-17.92-94.72-30.72-153.6-38.4-12.8-2.56-23.040-2.56-35.84-5.12h-5.12c-10.24 0-23.040-2.56-33.28-2.56-2.56 0-5.12 0-10.24 0h-10.24c-7.68 0-12.8 0-20.48 0-28.16 0-58.88 0-87.040 0-7.68 0-12.8 0-20.48 0h-12.8c-2.56 0-7.68 0-10.24 0-10.24 0-23.040 2.56-33.28 2.56h-5.12c-12.8 2.56-25.6 2.56-38.4 5.12-58.88 7.68-110.080 23.040-153.6 38.4-7.68 2.56-15.36 5.12-20.48 10.24h-2.56c-5.12 2.56-10.24 5.12-15.36 7.68l-2.56 2.56c-5.12 2.56-7.68 5.12-12.8 7.68l-5.12 2.56c-2.56 2.56-5.12 5.12-7.68 7.68-2.56 0-2.56 2.56-5.12 2.56-2.56 2.56-5.12 5.12-5.12 5.12 0 2.56-2.56 2.56-2.56 5.12s-2.56 2.56-2.56 5.12c0 2.56-2.56 2.56-2.56 5.12s0 2.56-2.56 5.12c0 2.56 0 5.12 0 5.12 0 2.56 0 2.56 0 5.12 2.56 0 2.56 2.56 2.56 7.68zM506.88 652.8c-248.32 0-404.48 71.68-404.48 120.32s156.16 122.88 404.48 122.88c245.76 0 401.92-71.68 401.92-122.88s-156.16-120.32-401.92-120.32zM921.6 330.24v0 0 0z" />
<glyph unicode="&#xe924;" glyph-name="logout" d="M757.76 698.88c-17.92 17.92-48.64 17.92-66.56 0s-17.92-48.64 0-66.56l138.24-138.24h-568.32c-25.6 0-46.080-20.48-46.080-46.080s20.48-46.080 46.080-46.080h570.88l-140.8-138.24c-17.92-17.92-17.92-48.64 0-66.56 10.24-10.24 20.48-12.8 33.28-12.8s23.040 5.12 33.28 12.8l217.6 217.6c17.92 17.92 17.92 48.64 0 66.56l-217.6 217.6zM476.16-64c25.6 0 46.080 20.48 46.080 46.080s-20.48 46.080-46.080 46.080h-355.84v839.68h355.84c25.6 0 46.080 20.48 46.080 46.080s-20.48 46.080-46.080 46.080h-401.92c-25.6 0-46.080-20.48-46.080-46.080v-931.84c0-25.6 20.48-46.080 46.080-46.080h401.92z" />
<glyph unicode="&#xe925;" glyph-name="message" d="M921.6 878.080c12.8 0 20.48-10.24 20.48-20.48v-614.4c0-12.8-10.24-20.48-20.48-20.48h-750.080l-89.6-89.6v724.48c0 12.8 10.24 20.48 20.48 20.48h819.2zM921.6 960h-819.2c-56.32 0-102.4-46.080-102.4-102.4v-921.6l204.8 204.8h716.8c56.32 0 102.4 46.080 102.4 102.4v614.4c0 56.32-46.080 102.4-102.4 102.4v0zM819.2 755.2h-614.4v-89.6h614.4v89.6zM819.2 606.72h-614.4v-89.6h614.4v89.6zM819.2 455.68h-614.4v-89.6h614.4v89.6z" />
<glyph unicode="&#xe926;" glyph-name="ic_file" horiz-adv-x="775" d="M774.898 746.456c-0.583 9.132-4.469 17.682-10.881 24.094l-177.986 177.986-0.972 1.166-0.583 0.389c-6.995 6.412-15.933 9.91-25.454 9.91h-495.484c-34.975 0-63.539-28.563-63.539-63.539v-896.729c0-35.17 28.563-63.733 63.539-63.733h647.821c35.17 0 63.539 28.563 63.539 63.539v746.917zM584.671 706.040h114.641v-694.26h-623.532v872.44h445.353v-114.641c0-35.17 28.563-63.539 63.539-63.539zM596.912 781.626v49.16l48.965-48.965h-48.965zM143.593 603.446c0-20.791 16.905-37.89 37.89-37.89h412.32c20.791 0 37.89 16.905 37.89 37.89 0 10.104-3.886 19.625-11.076 26.814s-16.71 11.076-26.814 11.076h-412.32c-20.985 0-37.89-17.099-37.89-37.89zM593.609 427.598h-412.126c-20.791 0-37.89-16.905-37.89-37.89 0-20.791 16.905-37.89 37.89-37.89h412.32c20.791 0 37.89 16.905 37.89 37.89 0 10.104-3.886 19.625-11.076 26.814-7.384 7.189-16.71 11.076-27.009 11.076zM387.643 219.689h-206.16c-20.791 0-37.89-16.905-37.89-37.89 0-20.791 16.905-37.89 37.89-37.89h206.16c20.791 0 37.89 16.905 37.89 37.89-0.194 20.791-17.099 37.89-37.89 37.89z" />
<glyph unicode="&#xe927;" glyph-name="ic_info" horiz-adv-x="208" d="M105.004 960c54.182 0 99.964-30.661 99.964-84.843 0-165.486-19.321-402.796-19.321-568.282 0-43.262-47.042-61.322-80.643-61.322-44.522 0-81.903 18.061-81.903 61.322 0 165.486-19.321 402.796-19.321 568.282-0.42 54.182 44.102 84.843 101.224 84.843zM105.004-64c-61.322 0-107.104 49.982-107.104 107.104 0 58.382 45.782 107.104 107.104 107.104 57.122 0 105.424-48.722 105.424-107.104 0-57.122-48.722-107.104-105.424-107.104z" />
<glyph unicode="&#xe928;" glyph-name="peyroll" d="M849.92-64h-665.6c-74.24 0-133.12 58.88-133.12 130.56v665.6c0 74.24 58.88 133.12 133.12 133.12h12.8v94.72h166.4v-94.72h309.76v94.72h166.4v-94.72h12.8c71.68 0 130.56-58.88 130.56-130.56v-665.6c-2.56-74.24-61.44-133.12-133.12-133.12zM184.32 793.6c-33.28 0-58.88-25.6-58.88-58.88v-665.6c0-33.28 25.6-58.88 58.88-58.88h665.6c33.28 0 58.88 25.6 58.88 58.88v665.6c0 33.28-25.6 58.88-58.88 58.88h-81.92v94.72h-25.6v-94.72h-450.56v94.72h-25.6v-94.72h-81.92zM837.12 79.36h-642.56v84.48c0 130.56 227.84 184.32 322.56 184.32s322.56-53.76 322.56-184.32v-84.48zM266.24 151.040h501.76v12.8c0 58.88-156.16 112.64-250.88 112.64s-250.88-51.2-250.88-112.64v-12.8zM517.12 363.52c-97.28 0-179.2 79.36-179.2 179.2s79.36 179.2 179.2 179.2c97.28 0 179.2-79.36 179.2-179.2s-81.92-179.2-179.2-179.2zM517.12 650.24c-58.88 0-107.52-48.64-107.52-107.52s48.64-107.52 107.52-107.52c58.88 0 107.52 48.64 107.52 107.52s-48.64 107.52-107.52 107.52z" />
<glyph unicode="&#xe929;" glyph-name="radio-circle" d="M1024 442.931c0-279.97-226.961-506.931-506.931-506.931s-506.931 226.961-506.931 506.931c0 279.97 226.961 506.931 506.931 506.931s506.931-226.961 506.931-506.931z" />
<glyph unicode="&#xe92a;" glyph-name="remove_no_space" d="M696.32 448l312.32-312.32c20.48-20.48 20.48-51.2 0-71.68l-112.64-112.64c-20.48-20.48-51.2-20.48-71.68 0l-312.32 312.32-312.32-312.32c-20.48-20.48-51.2-20.48-71.68 0l-112.64 112.64c-20.48 20.48-20.48 51.2 0 71.68l312.32 312.32-312.32 312.32c-20.48 20.48-20.48 51.2 0 71.68l112.64 112.64c20.48 20.48 51.2 20.48 71.68 0l312.32-312.32 312.32 312.32c20.48 20.48 51.2 20.48 71.68 0l112.64-112.64c20.48-20.48 20.48-51.2 0-71.68 0 0-312.32-312.32-312.32-312.32z" />
<glyph unicode="&#xe92b;" glyph-name="settings" horiz-adv-x="1032" d="M965.12 570.88h-94.72c-10.24 0-17.92 5.12-23.040 15.36s-2.56 17.92 5.12 25.6l66.56 66.56c12.8 12.8 17.92 28.16 17.92 43.52 0 17.92-7.68 33.28-17.92 43.52l-84.48 84.48c-23.040 23.040-66.56 23.040-89.6 0l-66.56-66.56c-7.68-7.68-17.92-10.24-25.6-5.12-10.24 5.12-15.36 12.8-15.36 23.040v94.72c0 35.84-28.16 64-64 64h-120.32c-35.84 0-64-28.16-64-64v-94.72c0-10.24-5.12-17.92-15.36-23.040s-20.48-2.56-25.6 5.12l-66.56 66.56c-23.040 23.040-66.56 23.040-89.6 0l-81.92-81.92c-10.24-12.8-17.92-28.16-17.92-46.080s7.68-33.28 17.92-43.52l66.56-66.56c7.68-7.68 10.24-17.92 5.12-25.6-2.56-10.24-10.24-15.36-23.040-15.36h-92.16c-35.84 0-64-28.16-64-64v-120.32c0-35.84 28.16-64 64-64h94.72c10.24 0 17.92-5.12 23.040-15.36s2.56-17.92-5.12-25.6l-69.12-64c-12.8-12.8-17.92-28.16-17.92-43.52 0-17.92 7.68-33.28 17.92-43.52l84.48-84.48c10.24-10.24 28.16-17.92 43.52-17.92 17.92 0 33.28 7.68 43.52 17.92l66.56 66.56c7.68 7.68 17.92 10.24 25.6 5.12 10.24-5.12 15.36-12.8 15.36-23.040v-94.72c0-35.84 28.16-64 64-64h120.32c35.84 0 64 28.16 64 64v94.72c0 10.24 5.12 17.92 15.36 23.040s17.92 2.56 25.6-5.12l66.56-66.56c23.040-23.040 66.56-23.040 89.6 0l84.48 84.48c12.8 12.8 17.92 28.16 17.92 43.52 0 17.92-7.68 33.28-17.92 43.52l-66.56 66.56c-7.68 7.68-10.24 17.92-5.12 25.6 5.12 10.24 12.8 15.36 23.040 15.36h94.72c35.84 0 64 28.16 64 64v120.32c-2.56 33.28-30.72 61.44-64 61.44zM791.040 332.8v0c-12.8-33.28-5.12-66.56 17.92-92.16l66.56-66.56c0 0 0 0 0-2.56 0 0 0-2.56 0-2.56l-81.92-81.92c0 0-2.56 0-2.56 0s0 0-2.56 0l-66.56 66.56c-25.6 25.6-58.88 30.72-92.16 17.92s-51.2-43.52-51.2-79.36v-94.72c0-2.56-2.56-2.56-2.56-2.56h-120.32c-2.56 0-2.56 2.56-2.56 2.56v94.72c0 35.84-20.48 64-51.2 79.36-10.24 5.12-20.48 7.68-33.28 7.68-23.040 0-43.52-7.68-58.88-25.6l-66.56-66.56c0 0-2.56 0-5.12 0l-84.48 84.48c0 0 0 2.56 0 2.56s0 2.56 0 2.56l66.56 66.56c25.6 25.6 30.72 58.88 17.92 92.16s-43.52 51.2-79.36 51.2h-92.16c-2.56 0-2.56 2.56-2.56 2.56v120.32c0 2.56 2.56 2.56 2.56 2.56h94.72c35.84 0 64 20.48 79.36 51.2 12.8 33.28 5.12 66.56-17.92 92.16l-69.12 66.56c0 0 0 0 0 2.56 0 0 0 2.56 0 2.56l84.48 84.48c0 0 2.56 0 5.12 0l64-69.12c25.6-25.6 58.88-30.72 92.16-17.92s51.2 43.52 51.2 79.36v92.16c0 2.56 2.56 2.56 2.56 2.56h120.32c2.56 0 2.56-2.56 2.56-2.56v-94.72c0-35.84 20.48-64 51.2-79.36 33.28-12.8 66.56-5.12 92.16 17.92l66.56 66.56c0 0 0 0 2.56 0 0 0 2.56 0 2.56 0l84.48-84.48c0 0 0 0 0-2.56s0-2.56 0-2.56l-66.56-66.56c-25.6-25.6-30.72-58.88-17.92-92.16s43.52-51.2 79.36-51.2h94.72c0 0 2.56 0 2.56 0s0 0 0-2.56v-120.32c0-2.56-2.56-2.56-2.56-2.56h-94.72c-35.84 5.12-64-15.36-79.36-48.64zM514.56 627.2c-97.28 0-179.2-79.36-179.2-179.2 0-97.28 79.36-179.2 179.2-179.2 97.28 0 179.2 79.36 179.2 179.2 0 97.28-79.36 179.2-179.2 179.2zM514.56 330.24c-64 0-117.76 53.76-117.76 117.76s53.76 117.76 117.76 117.76c64 0 117.76-53.76 117.76-117.76s-51.2-117.76-117.76-117.76z" />
<glyph unicode="&#xe92c;" glyph-name="to-do" d="M496.64 586.24h317.44v-84.48h-317.44v84.48zM642.56 890.88h-10.24v33.28c0 20.48-17.92 35.84-38.4 35.84s-35.84-15.36-35.84-35.84v-33.28h-94.72v33.28c0 20.48-15.36 35.84-35.84 35.84s-35.84-15.36-35.84-35.84v-33.28h-92.16v33.28c0 20.48-15.36 35.84-35.84 35.84s-38.4-15.36-38.4-35.84v-33.28c-81.92-5.12-145.92-74.24-145.92-158.72v-673.28c0-69.12 56.32-122.88 122.88-122.88h622.080c69.12 0 122.88 56.32 122.88 122.88v673.28c0 84.48-66.56 151.040-148.48 156.16v35.84c0 20.48-15.36 35.84-35.84 35.84s-35.84-15.36-35.84-35.84v-33.28h-84.48zM381.44 816.64h10.24v-23.040c0-20.48 15.36-35.84 35.84-35.84s35.84 15.36 35.84 35.84v23.040h94.72v-23.040c0-20.48 15.36-35.84 35.84-35.84s35.84 15.36 35.84 35.84v23.040h94.72v-23.040c0-20.48 15.36-35.84 35.84-35.84s35.84 15.36 35.84 35.84v23.040c40.96-5.12 74.24-40.96 74.24-84.48v-673.28c0-28.16-23.040-51.2-51.2-51.2h-616.96c-28.16 0-51.2 23.040-51.2 51.2v673.28c0 43.52 33.28 79.36 74.24 84.48v-23.040c0-20.48 15.36-35.84 35.84-35.84s35.84 15.36 35.84 35.84v23.040h84.48zM496.64 317.44h312.32v-84.48h-312.32v84.48zM435.2 599.040l-43.52 46.080-104.96-104.96-40.96 40.96-43.52-43.52 84.48-84.48zM391.68 378.88l-104.96-104.96-40.96 40.96-43.52-43.52 84.48-84.48 148.48 148.48z" />
</font>
</defs>
</svg>
